<svg width="32.3" height="32.3" xmlns="http://www.w3.org/2000/svg">

 <g>
  <title>Layer 1</title>
  <g id="svg_1" fill="#231f20">
   <path id="svg_2" d="m10.31476,25.84161c0,1.04093 -0.89493,1.98724 -2.08818,1.98724s-2.08818,-0.85167 -2.08818,-1.98724l0,-8.51672c0,-1.04093 0.89493,-1.98724 2.08818,-1.98724s2.08818,0.85167 2.08818,1.98724l0,8.51672zm5.96623,2.27113c0,1.04093 -0.89493,1.98724 -2.08818,1.98724s-1.98874,-0.85167 -1.98874,-1.98724l0,-12.96435c0,-1.04093 0.89493,-1.98724 2.08818,-1.98724s2.08818,0.85167 2.08818,1.98724l0,12.96435l-0.09944,0zm-12.0319,-4.16373c0,1.04093 -0.89493,1.98724 -2.08818,1.98724s-2.08818,-0.85167 -2.08818,-1.98724l0,-4.63688c0,-1.04093 0.89493,-1.98724 2.08818,-1.98724s2.08818,0.9463 2.08818,1.98724l0,4.63688zm17.99813,6.2456c0,1.04093 -0.89493,1.98724 -2.08818,1.98724c-1.09381,0 -1.98874,-0.9463 -1.98874,-1.98724l0,-17.22271c0,-1.04093 0.89493,-1.98724 2.08818,-1.98724c1.09381,0 2.08818,0.85167 2.08818,1.98724l0,17.22271l-0.09944,0z"/>
   <path id="svg_3" d="m28.81008,29.34293c-0.39775,0 -0.69606,-0.09463 -1.09381,-0.18926l-2.48593,-0.75704c-0.39775,-0.09463 -0.69606,-0.56778 -0.49719,-0.9463c0.09944,-0.37852 0.59662,-0.66241 0.99437,-0.47315l2.58537,0.75704c0.49719,0.18926 1.09381,0.09463 1.59099,-0.28389c0.49719,-0.28389 0.69606,-0.85167 0.69606,-1.32482l0,-15.80325c0,-0.75704 -0.49719,-1.41945 -1.19325,-1.60871l-24.36211,-7.00264c-0.49719,-0.18926 -1.09381,-0.09463 -1.59099,0.18926c-0.39775,0.37852 -0.69606,0.85167 -0.69606,1.41945l0,10.88248c0,0.47315 -0.39775,0.75704 -0.7955,0.75704c-0.49719,0 -0.7955,-0.37852 -0.7955,-0.75704l0,-10.88248c0,-1.04093 0.49719,-1.98724 1.39212,-2.55502c0.89493,-0.66241 1.98874,-0.75704 2.98312,-0.47315l24.26267,7.00264c1.39212,0.37852 2.38649,1.70334 2.38649,3.1228l0,15.80325c0,1.04093 -0.49719,1.98724 -1.39212,2.64965c-0.59662,0.18926 -1.29268,0.47315 -1.98874,0.47315"/>
  </g>
 </g>
</svg>