<svg width="60.3" height="60.4" xmlns="http://www.w3.org/2000/svg">

 <g>
  <title>Layer 1</title>
  <path id="svg_1" fill="#e8762d" d="m28.5,40.2l3.3,0l0,-9l8.3,0l0,-3.2l-8.3,0l0,-9l-3.3,0l0,9l-8.2,0l0,3.2l8.2,0l0,9z"/>
  <path id="svg_2" fill="#c72037" d="m13.2,53.2l2.8,0l0,-8l7.4,0l0,-2.5l-7.4,0l0,-8.1l-2.8,0l0,8.1l-7.4,0l0,2.5l7.4,0l0,8z"/>
  <path id="svg_3" fill="#5b879b" d="m44.3,24.3l2.8,0l0,-8l7.5,0l0,-2.4l-7.5,0l0,-8.1l-2.8,0l0,8.1l-7.4,0l0,2.4l7.4,0l0,8z"/>
  <path id="svg_4" fill="#5c6692" d="m29,59.5l2.4,0l0,-5.7l5.1,0l0,-2.1l-5.1,0l0,-5.7l-2.4,0l0,5.7l-5,0l0,2.1l5,0l0,5.7z"/>
  <path id="svg_5" fill="#eb9129" d="m13.3,24.3l2.6,0l0,-8.1l7.5,0l0,-2.3l-7.5,0l0,-8.1l-2.6,0l0,8.1l-7.5,0l0,2.3l7.5,0l0,8.1z"/>
  <path id="svg_6" fill="#5c6692" d="m52.8,36.3l2.4,0l0,-5.6l5.1,0l0,-2.2l-5.1,0l0,-5.6l-2.4,0l0,5.6l-5,0l0,2.2l5,0l0,5.6z"/>
  <path id="svg_7" fill-rule="evenodd" fill="#1f457e" d="m44.3,53.2l2.8,0l0,-8l7.5,0l0,-2.5l-7.5,0l0,-8.1l-2.8,0l0,8.1l-7.4,0l0,2.5l7.4,0l0,8z" clip-rule="evenodd"/>
  <path id="svg_8" fill="#7199a6" d="m36.1,7.2l0,-1.7l-5,0l0,-5.5l-1.8,0l0,5.5l-5,0l0,1.7l5,0l0,5.5l1.8,0l0,-5.5l5,0zm-31.1,28.7l1.8,0l0,-5.5l5,0l0,-1.7l-5,0l0,-5.4l-1.8,0l0,5.4l-5,0l0,1.8l5,-0.1l0,5.5z"/>
 </g>
</svg>