<svg width="325.87" height="325" xmlns="http://www.w3.org/2000/svg">

 <g>
  <title>Layer 1</title>
  <path id="svg_1" d="m26.3,179.1c-4.533,0 -8.466,-0.7 -11.8,-2.1c-3.333,-1.4 -6.066,-3.3 -8.2,-5.7c-2.133,-2.468 -3.732,-5.367 -4.8,-8.7c-1,-3.334 -1.5,-6.934 -1.5,-10.8l0,-43.5l9.7,0l0,42.4c0,6.932 1.533,11.966 4.6,15.1c3.067,3.133 7.067,4.7 12,4.7c2.467,0 4.7,-0.368 6.7,-1.102c2.066,-0.8 3.834,-2 5.3,-3.6c1.467,-1.6 2.601,-3.633 3.4,-6.1c0.8,-2.533 1.2,-5.533 1.2,-9l0,-42.4l9.7,0l0,43.5c0,3.867 -0.534,7.467 -1.601,10.8c-1,3.334 -2.6,6.233 -4.8,8.7c-2.134,2.4 -4.866,4.3 -8.2,5.7c-3.266,1.402 -7.165,2.102 -11.699,2.102m51.845,-51.2c1.134,-0.733 2.833,-1.5 5.1,-2.3c2.334,-0.8 5,-1.2 8,-1.2c3.733,0 7.034,0.666 9.9,2c2.934,1.333 5.4,3.2 7.4,5.6s3.5,5.267 4.5,8.6c1.066,3.334 1.6,7 1.6,11c0,4.2 -0.634,8 -1.9,11.4c-1.199,3.333 -2.933,6.167 -5.199,8.5s-5,4.133 -8.2,5.4c-3.2,1.267 -6.8,1.9 -10.8,1.9c-4.334,0 -8.167,-0.3 -11.5,-0.9c-3.334,-0.6 -6.067,-1.2 -8.2,-1.8l0,-74.5l9.3,-1.6l0,27.9m-0.001,41.6c0.934,0.267 2.233,0.533 3.9,0.8c1.733,0.2 3.866,0.3 6.399,0.3c5,0 9,-1.633 12,-4.899c3,-3.334 4.5,-8.033 4.5,-14.1c0,-2.667 -0.267,-5.167 -0.8,-7.5c-0.533,-2.334 -1.4,-4.334 -2.6,-6c-1.2,-1.734 -2.767,-3.067 -4.7,-4c-1.867,-1 -4.134,-1.5 -6.8,-1.5c-2.533,0 -4.867,0.433 -7,1.3c-2.134,0.866 -3.767,1.767 -4.9,2.7l0,32.9m91.476,6.599c-2.133,0.532 -4.966,1.1 -8.5,1.7c-3.466,0.6 -7.5,0.9 -12.1,0.9c-4,0 -7.366,-0.568 -10.1,-1.7c-2.733,-1.2 -4.934,-2.868 -6.601,-5c-1.666,-2.135 -2.866,-4.635 -3.6,-7.5c-0.733,-2.935 -1.101,-6.168 -1.101,-9.7l0,-29.2l9.301,0l0,27.2c0,6.332 1,10.866 3,13.6c2,2.732 5.366,4.1 10.1,4.1c1,0 2.033,-0.033 3.1,-0.1c1.067,-0.067 2.067,-0.134 3,-0.2a50.742,50.742 0 0 1 2.5,-0.3c0.801,-0.134 1.367,-0.268 1.7,-0.4l0,-43.9l9.3,0l0,50.5m16.414,-49c2.133,-0.534 4.967,-1.1 8.5,-1.7c3.533,-0.6 7.6,-0.9 12.2,-0.9c4.133,0 7.566,0.6 10.3,1.8c2.733,1.134 4.899,2.767 6.5,4.9c1.667,2.066 2.833,4.566 3.5,7.5c0.667,2.933 1,6.166 1,9.7l0,29.2l-9.3,0l0,-27.2c0,-3.2 -0.233,-5.934 -0.7,-8.2c-0.4,-2.267 -1.101,-4.1 -2.101,-5.5c-1,-1.4 -2.333,-2.4 -4,-3c-1.666,-0.667 -3.732,-1 -6.199,-1c-1,0 -2.033,0.033 -3.101,0.1a44.27,44.27 0 0 0 -3.1,0.3c-0.934,0.067 -1.8,0.167 -2.601,0.3a95.77,95.77 0 0 0 -1.6,0.301l0,43.9l-9.3,0l0,-50.503m66.515,-1.498l19.699,0l0,7.8l-19.699,0l0,24c0,2.6 0.199,4.767 0.6,6.5c0.4,1.666 1,3 1.8,4c0.8,0.933 1.8,1.6 3,2c1.2,0.4 2.601,0.6 4.2,0.6c2.8,0 5.033,-0.3 6.7,-0.9a346.363,346.363 0 0 0 3.6,-1.399l1.8,7.7c-0.933,0.466 -2.566,1.033 -4.899,1.7c-2.333,0.732 -5,1.1 -8,1.1c-3.533,0 -6.467,-0.434 -8.8,-1.3c-2.267,-0.934 -4.101,-2.3 -5.5,-4.1c-1.4,-1.8 -2.4,-4 -3,-6.6c-0.533,-2.668 -0.801,-5.734 -0.8,-9.2l0,-46.401l9.3,-1.6l0,16.098m73.323,50.502c-2.133,0.532 -4.966,1.1 -8.5,1.7c-3.466,0.6 -7.5,0.9 -12.1,0.9c-4,0 -7.366,-0.568 -10.1,-1.7c-2.733,-1.2 -4.934,-2.868 -6.601,-5c-1.666,-2.135 -2.866,-4.635 -3.6,-7.5c-0.733,-2.935 -1.101,-6.168 -1.101,-9.7l0,-29.2l9.301,0l0,27.2c0,6.332 1,10.866 3,13.6c2,2.732 5.366,4.1 10.1,4.1c1,0 2.033,-0.033 3.1,-0.1c1.067,-0.067 2.067,-0.134 3,-0.2a50.742,50.742 0 0 1 2.5,-0.3c0.801,-0.134 1.367,-0.268 1.7,-0.4l0,-43.9l9.3,0l0,50.5"/>
 </g>
</svg>